Coordinates
version=1
nRows=15
nColumns=34
inDegrees=yes

Units are S.I. units (second, meters, Newtons, ...)
If the header above contains a line with 'inDegrees', this indicates whether rotational values are in degrees (yes) or radians (no).

endheader
time	pelvis_tilt	pelvis_list	pelvis_rotation	pelvis_tx	pelvis_ty	pelvis_tz	hip_flexion_r	hip_adduction_r	hip_rotation_r	knee_angle_r	ankle_angle_r	subtalar_angle_r	mtp_angle_r	hip_flexion_l	hip_adduction_l	hip_rotation_l	knee_angle_l	ankle_angle_l	subtalar_angle_l	mtp_angle_l	lumbar_extension	lumbar_bending	lumbar_rotation	arm_flex_r	arm_add_r	arm_rot_r	elbow_flex_r	pro_sup_r	arm_flex_l	arm_add_l	arm_rot_l	elbow_flex_l	pro_sup_l
      3.48333330	     18.54389089	     19.05407426	   -132.74975007	     -0.66139810	      0.72574291	     -0.33372764	     84.67547958	    -13.85141189	    -15.78533212	     80.80916420	     19.51192052	    -13.05583608	      0.00000000	     42.52537466	    -23.12782940	      9.68963784	     56.40035354	     36.34427918	     -7.03530286	      0.00000000	    -31.93368072	      6.46054484	    -16.50548057	     23.86066823	    -18.72181485	     21.99680202	     87.32245342	     88.74485817	     54.77602327	     -9.52632702	     11.14603346	     64.49622125	     81.76933962
      3.50000000	     18.97459870	     19.64355718	   -134.04562267	     -0.65828044	      0.73705474	     -0.33138444	     84.75253267	    -14.13116306	    -15.42007332	     80.14016595	     17.70554537	    -15.30040676	      0.00000000	     41.20701696	    -23.51167340	      8.37642950	     53.90082846	     35.04932867	     -7.97264420	      0.00000000	    -31.07669866	      7.98655188	    -18.11575371	     14.17243873	    -15.30635842	     21.73937988	     93.53028785	     89.31112963	     59.74855064	     -6.91610081	     15.18819066	     71.41814436	     81.26888440
      3.51666670	     19.15932958	     19.87203819	   -135.34299042	     -0.65244870	      0.75060343	     -0.32758229	     84.14857284	    -14.75835345	    -15.44931622	     78.59622971	     16.47170953	    -16.33253963	      0.00000000	     39.45072528	    -23.35255496	      7.25165714	     51.34961174	     33.96684199	     -8.38862709	      0.00000000	    -31.45701789	      9.93954320	    -17.76082383	      8.06538124	    -12.48932655	     18.05978696	     97.63731231	     91.60418413	     67.20038298	     -2.26818095	     20.07299131	     74.30497933	     79.16875043
      3.53333330	     19.31310059	     19.62929946	   -137.20347856	     -0.64900773	      0.76862968	     -0.32229357	     82.77601029	    -15.03562554	    -15.61890438	     75.91350233	     14.62636365	    -17.38710734	      0.00000000	     36.60970618	    -22.88332238	      5.60384272	     48.08614346	     32.01555081	     -9.52264162	      0.00000000	    -32.13642732	     11.76743410	    -19.18766905	      9.93768531	     -9.72226941	     17.84530718	     96.98023089	     92.46998994	     73.50278279	     -0.76773360	     22.55992606	     76.10219261	     78.38678291
      3.55000000	     19.47080055	     19.21687458	   -139.45896080	     -0.65041179	      0.78606684	     -0.31576754	     81.04233675	    -15.03326036	    -16.11047192	     72.81393006	     13.10616448	    -18.02956827	      0.00000000	     33.03117875	    -22.33842755	      3.66807604	     44.17301177	     29.79568621	    -10.66454425	      0.00000000	    -32.92767549	     13.52463964	    -19.60073641	     13.68946374	     -7.20460073	     16.58701416	     95.41604460	     92.69976500	     78.90800986	      0.12007648	     24.51921088	     77.06908599	     77.75054221
      3.56666670	     19.55558449	     18.53607837	   -142.06615731	     -0.65718111	      0.79909335	     -0.30905829	     79.13253581	    -14.60460647	    -16.62784661	     69.94354810	     11.83040993	    -18.88163715	      0.00000000	     28.59835968	    -21.86213188	      1.29499486	     39.72464960	     27.20538042	    -11.95216029	      0.00000000	    -33.57695236	     15.07116971	    -19.24641547	     17.19113711	     -5.18483540	     14.65214865	     94.21497467	     92.55926218	     82.38927741	     -0.12656151	     25.52253573	     78.70638082	     77.32490248
      3.58333330	     19.50720715	     17.65177880	   -144.79021044	     -0.66838324	      0.81045388	     -0.30267994	     77.01346935	    -13.80661625	    -17.04123945	     67.54691674	     11.06603239	    -20.00635545	      0.00000000	     23.32883748	    -21.36422122	     -1.31310872	     34.58495581	     24.37307806	    -12.93324466	      0.00000000	    -33.99582530	     16.25304613	    -18.14378174	     19.86367574	     -3.89929398	     12.79780598	     93.62808997	     92.38610843	     83.99156139	     -1.15456906	     26.14928473	     82.93825292	     77.09287916
      3.60000000	     19.18148282	     16.92726376	   -147.04366157	     -0.68235224	      0.82368734	     -0.29638620	     74.33380196	    -13.07570411	    -18.12254189	     65.45448308	     10.34338883	    -21.17079079	      0.00000000	     17.61347344	    -20.98145307	     -3.89659132	     28.61003066	     20.77719420	    -12.91932751	      0.00000000	    -34.07304079	     17.98046155	    -17.36502618	     22.87362418	     -2.70620724	     12.10226170	     92.18989790	     92.35161923	     82.47675628	     -4.44892622	     25.61305060	     89.33763930	     76.76049118
      3.61666670	     18.70049782	     16.13399975	   -148.90124384	     -0.69853940	      0.83628725	     -0.28999668	     71.18484649	    -12.48853626	    -19.65328018	     63.80293706	      9.78825089	    -21.90418392	      0.00000000	     11.62108585	    -20.42302779	     -6.73293733	     22.37874183	     16.84406511	    -12.35040716	      0.00000000	    -34.17368662	     19.32028648	    -15.82679302	     25.99223305	     -2.58642567	     11.57056224	     89.49439176	     92.38200302	     79.22782222	     -6.58193119	     24.42651550	     94.27660468	     76.83183772
      3.63333330	     18.79953874	     16.01047566	   -150.37751446	     -0.71881773	      0.84615363	     -0.28402146	     68.20813055	    -11.76651805	    -21.81531758	     62.09959518	      9.32676765	    -22.73485474	      0.00000000	      7.17225856	    -20.07847993	     -9.14646890	     16.97917420	     11.85595068	    -11.34019257	      0.00000000	    -32.76461026	     21.29389404	    -16.05823439	     29.99947971	     -1.95163809	     13.38677789	     84.15116852	     92.81239381	     73.80818753	    -10.33681174	     22.60643084	    100.87080380	     77.47400034
      3.65000000	     19.06580760	     15.40026864	   -151.73085673	     -0.74592227	      0.84914253	     -0.27936231	     64.88273816	    -10.96089093	    -23.48275210	     60.98317429	      8.89817359	    -23.81937417	      0.00000000	      3.09784068	    -19.23666681	    -11.14181567	     12.72917873	      6.20492674	    -11.34837444	      0.00000000	    -31.25045793	     22.15013669	    -15.50209164	     31.44829730	     -1.56661085	     13.69435837	     79.89988702	     93.29187962	     67.91631768	    -11.90494593	     21.16915801	    105.46279640	     78.36894125
      3.66666670	     19.49714690	     14.37752470	   -153.04779380	     -0.77879451	      0.85085424	     -0.27656099	     61.04228244	     -9.97529070	    -24.63961873	     60.29712397	      8.70517354	    -25.24583020	      0.00000000	     -0.40945106	    -18.04948320	    -13.01986443	      9.78174458	     -0.06464280	    -11.67300411	      0.00000000	    -29.71513340	     21.90496700	    -14.33851117	     31.07683951	     -1.27411782	     13.22750356	     76.11632769	     93.65802651	     61.55000245	    -11.96655969	     20.39152873	    107.27261510	     78.99897256
      3.68333330	     20.21852471	     13.18363611	   -154.44148124	     -0.81091325	      0.85319500	     -0.27606829	     56.67856975	     -8.66584421	    -25.35022282	     59.01350350	      8.69152914	    -26.03627156	      0.00000000	     -2.57267449	    -16.65116188	    -13.88035733	      9.02873053	     -6.54912202	    -12.87840553	      0.00000000	    -27.99154065	     20.98076155	    -13.27922960	     30.81274708	     -0.86701085	     13.19914543	     70.98200444	     94.10956421	     55.58153074	    -11.46030021	     20.51994776	    106.07216761	     79.60287185
      3.70000000	     21.15213559	     11.21989928	   -156.29357351	     -0.83787682	      0.85488604	     -0.27889311	     52.08340303	     -7.19351200	    -24.78138721	     56.57338950	      9.86000404	    -25.75266198	      0.00000000	     -2.98464488	    -14.41814213	    -11.91718313	     11.97811665	    -12.94005333	    -16.36225091	      0.00000000	    -27.08789107	     18.69375332	    -11.83741429	     31.37437014	      0.15341825	     13.43978797	     65.51944616	     94.45991415	     50.94646233	    -10.46025742	     21.59914915	    101.11439202	     80.04463779
      3.71666670	     22.34058712	      8.28262116	   -158.58721596	     -0.86058636	      0.86086975	     -0.28409425	     47.67954314	     -6.30354136	    -22.92912834	     52.59558156	     12.55568203	    -24.03382367	      0.00000000	     -0.53159810	    -10.71054582	     -6.72989104	     20.38478099	    -18.76762864	    -21.52486992	      0.00000000	    -27.08146818	     15.06724415	    -10.05703728	     32.68711264	      1.54932794	     14.16527476	     61.33082709	     94.69511062	     46.44134172	    -10.36261981	     23.13408282	     93.40623730	     80.36852943
